<svg width="482" height="500" viewBox="0 0 482 500" fill="none" xmlns="http://www.w3.org/2000/svg">
<rect width="482" height="500" fill="#D9D9D9"/>
<rect width="254" height="171" transform="matrix(-1 0 0 1 373 217)" fill="#EAEAEA"/>
<rect width="254" height="42" transform="matrix(-0.965728 0.259556 0.259556 0.965728 354.099 111)" fill="#EAEAEA"/>
<path d="M211.804 193L171.304 160L191.304 154.5L233.304 187L211.804 193Z" fill="#C9C9C9"/>
<path d="M326.741 165.655L276.843 128.072L299.709 119.749L351.315 156.6L326.741 165.655Z" fill="#C9C9C9"/>
<path d="M269.009 178.624L222.968 142.984L245.054 136.249L292.749 171.286L269.009 178.624Z" fill="#C9C9C9"/>
<rect x="125.804" y="238" width="239" height="32" fill="#D9DFC5" fill-opacity="0.25"/>
<rect x="125.804" y="291" width="151" height="10" fill="#D9DFC5" fill-opacity="0.25"/>
<rect x="277.804" y="291" width="88" height="27" fill="#D9DFC5" fill-opacity="0.25"/>
<rect x="125.804" y="362" width="240" height="10" fill="#D9DFC5" fill-opacity="0.25"/>
<rect x="125.804" y="344" width="239" height="10" fill="#D9DFC5" fill-opacity="0.25"/>
<rect x="126.804" y="326" width="238" height="10" fill="#D9DFC5" fill-opacity="0.25"/>
<rect x="125.804" y="308" width="151" height="10" fill="#D9DFC5" fill-opacity="0.25"/>
<rect x="125.804" y="237" width="240" height="1" fill="#C9C9C9"/>
<rect x="125.804" y="289" width="240" height="1" fill="#C9C9C9"/>
<rect x="277.804" y="290" width="35" height="0.999998" transform="rotate(90 277.804 290)" fill="#C9C9C9"/>
<rect x="125.804" y="361" width="240" height="1" fill="#C9C9C9"/>
<rect x="276.804" y="325" width="89" height="1" fill="#C9C9C9"/>
<rect x="125.804" y="343" width="240" height="1" fill="#C9C9C9"/>
<rect x="125.804" y="325" width="151" height="1" fill="#C9C9C9"/>
<rect x="125.804" y="307" width="151" height="1" fill="#C9C9C9"/>
</svg>
